<svg xmlns="http://www.w3.org/2000/svg" width="20" height="24" viewBox="0 0 20 24"><path fill="#37474F" d="M20.093 5.785l-7.685-.004.292 1.49h5.298l-1.528 4.117.808 4.115h-7.89l-.55-2.81H7.292l.842 4.294h10.978l-1.098-5.6"/><path fill="#37474F" d="M14.248 7.27H12.7l-.288-1.488 1.543.002.293 1.486zm-5.41 5.422H7.292l.292 1.485H9.13l-.293-1.485z"/><path fill="#37474F" d="M2.128 2.97h8.184l1.615 8.237h-8.18l.29 1.485h9.725L11.566 1.486h-9.73"/><path fill="#37474F" d="M5.263 11.207l.29 1.485H4.037l-.292-1.485h1.518zM2.128 2.97h1.516l-.29-1.484h-1.52L2.13 2.97z"/><path fill="#37474F" d="M1.545 0H0l4.77 24.277H6.31"/></svg>
